# xmcd CD database file
#
# Track frame offsets:
#	150
#	20137
#	37150
#	58655
#	78475
#	99460
#	121290
#	139017
#	149407
#	168142
#	187572
#	196902
#	209567
#
# Disc length: 3069 seconds
#
# Revision: 0
# Processed by: cddbd v1.5.1PL0 Copyright (c) Steve Scherf et al.
# Submitted via: CDex 1.51
#
DISCID=b60bfb0d
DTITLE=Various Artist - Private Moments
DYEAR=1999
DGENRE=New Age
TTITLE0=Daz Goes Jaz - Nessun Dorma (Radio Edit)
TTITLE1=Trance Atlantic Air Waves - Crockett's Theme
TTITLE2=Eric Serra - The Big Blue Overture
TTITLE3=Enigma - Shadows In Silence
TTITLE4=Giorgos Christianakis - Entrance
TTITLE5=Ryuichi Sakamoto - Laserman
TTITLE6=The Edge - Rowena's Theme
TTITLE7=Mediaeval Baebes - Gaudete (Rejoice)
TTITLE8=ElBosco - Angelis
TTITLE9=Alain Lombard - Paris Opera - Comique Orchestra - Delibes "Flower Duet" from Lakme, Act 1
TTITLE10=Phil Kelsall - Brideshead Revisited
TTITLE11=Mike Oldfield - Arrival
TTITLE12=Sacred Spirit - Culture Clash
EXTD=YEAR: 1999
EXTT0=
EXTT1=
EXTT2=
EXTT3=
EXTT4=
EXTT5=
EXTT6=
EXTT7=
EXTT8=
EXTT9=
EXTT10=
EXTT11=
EXTT12=
PLAYORDER=
